{
	"patcher" : 	{
		"fileversion" : 1,
		"appversion" : 		{
			"major" : 8,
			"minor" : 5,
			"revision" : 3,
			"architecture" : "x64",
			"modernui" : 1
		}
,
		"classnamespace" : "box",
		"rect" : [ 34.0, 85.0, 2492.0, 1289.0 ],
		"bglocked" : 0,
		"openinpresentation" : 0,
		"default_fontsize" : 12.0,
		"default_fontface" : 0,
		"default_fontname" : "Arial",
		"gridonopen" : 1,
		"gridsize" : [ 15.0, 15.0 ],
		"gridsnaponopen" : 1,
		"objectsnaponopen" : 1,
		"statusbarvisible" : 2,
		"toolbarvisible" : 1,
		"lefttoolbarpinned" : 0,
		"toptoolbarpinned" : 0,
		"righttoolbarpinned" : 0,
		"bottomtoolbarpinned" : 0,
		"toolbars_unpinned_last_save" : 0,
		"tallnewobj" : 0,
		"boxanimatetime" : 200,
		"enablehscroll" : 1,
		"enablevscroll" : 1,
		"devicewidth" : 0.0,
		"description" : "",
		"digest" : "",
		"tags" : "",
		"style" : "",
		"subpatcher_template" : "",
		"assistshowspatchername" : 0,
		"boxes" : [ 			{
				"box" : 				{
					"id" : "obj-42",
					"maxclass" : "comment",
					"numinlets" : 1,
					"numoutlets" : 0,
					"patching_rect" : [ 1039.0, 22.0, 150.0, 20.0 ]
				}

			}
, 			{
				"box" : 				{
					"id" : "obj-40",
					"maxclass" : "toggle",
					"numinlets" : 1,
					"numoutlets" : 1,
					"outlettype" : [ "int" ],
					"parameter_enable" : 0,
					"patching_rect" : [ 1039.0, 48.0, 24.0, 24.0 ]
				}

			}
, 			{
				"box" : 				{
					"id" : "obj-36",
					"maxclass" : "comment",
					"numinlets" : 1,
					"numoutlets" : 0,
					"patching_rect" : [ 28.0, 16.0, 150.0, 20.0 ],
					"text" : "Firebase database stuff"
				}

			}
, 			{
				"box" : 				{
					"id" : "obj-34",
					"linecount" : 4,
					"maxclass" : "comment",
					"numinlets" : 1,
					"numoutlets" : 0,
					"patching_rect" : [ 132.0, 233.0, 150.0, 62.0 ],
					"text" : "all data in the firebase database, must turn off metronome to scroll or will keep resetting"
				}

			}
, 			{
				"box" : 				{
					"id" : "obj-32",
					"linecount" : 4,
					"maxclass" : "comment",
					"numinlets" : 1,
					"numoutlets" : 0,
					"patching_rect" : [ 103.0, 50.0, 166.0, 62.0 ],
					"text" : "loads whole database every metronome tick, may have to decrease metronome rate to prevent lag"
				}

			}
, 			{
				"box" : 				{
					"id" : "obj-29",
					"linecount" : 3,
					"maxclass" : "comment",
					"numinlets" : 1,
					"numoutlets" : 0,
					"patching_rect" : [ 198.0, 777.0, 150.0, 48.0 ],
					"text" : "want to add pitch bend and vibrato and effects at some point"
				}

			}
, 			{
				"box" : 				{
					"id" : "obj-27",
					"maxclass" : "comment",
					"numinlets" : 1,
					"numoutlets" : 0,
					"patching_rect" : [ 28.0, 777.0, 150.0, 20.0 ],
					"text" : "lead synth"
				}

			}
, 			{
				"box" : 				{
					"id" : "obj-25",
					"maxclass" : "comment",
					"numinlets" : 1,
					"numoutlets" : 0,
					"patching_rect" : [ 400.0, 787.0, 150.0, 20.0 ],
					"text" : "master"
				}

			}
, 			{
				"box" : 				{
					"id" : "obj-19",
					"maxclass" : "comment",
					"numinlets" : 1,
					"numoutlets" : 0,
					"patching_rect" : [ 565.0, 787.0, 150.0, 20.0 ],
					"text" : "attack and release for lead"
				}

			}
, 			{
				"box" : 				{
					"id" : "obj-17",
					"maxclass" : "comment",
					"numinlets" : 1,
					"numoutlets" : 0,
					"patching_rect" : [ 2263.0, 40.0, 150.0, 20.0 ],
					"text" : "WIP"
				}

			}
, 			{
				"box" : 				{
					"id" : "obj-14",
					"linecount" : 3,
					"maxclass" : "comment",
					"numinlets" : 1,
					"numoutlets" : 0,
					"patching_rect" : [ 2263.0, 73.0, 150.0, 48.0 ],
					"text" : "will add lighting effects with launchpad and visuals with jiter later"
				}

			}
, 			{
				"box" : 				{
					"id" : "obj-8",
					"maxclass" : "newobj",
					"numinlets" : 1,
					"numoutlets" : 0,
					"patcher" : 					{
						"fileversion" : 1,
						"appversion" : 						{
							"major" : 8,
							"minor" : 5,
							"revision" : 3,
							"architecture" : "x64",
							"modernui" : 1
						}
,
						"classnamespace" : "box",
						"rect" : [ 457.0, 193.0, 640.0, 480.0 ],
						"bglocked" : 0,
						"openinpresentation" : 0,
						"default_fontsize" : 12.0,
						"default_fontface" : 0,
						"default_fontname" : "Arial",
						"gridonopen" : 1,
						"gridsize" : [ 15.0, 15.0 ],
						"gridsnaponopen" : 1,
						"objectsnaponopen" : 1,
						"statusbarvisible" : 2,
						"toolbarvisible" : 1,
						"lefttoolbarpinned" : 0,
						"toptoolbarpinned" : 0,
						"righttoolbarpinned" : 0,
						"bottomtoolbarpinned" : 0,
						"toolbars_unpinned_last_save" : 0,
						"tallnewobj" : 0,
						"boxanimatetime" : 200,
						"enablehscroll" : 1,
						"enablevscroll" : 1,
						"devicewidth" : 0.0,
						"description" : "",
						"digest" : "",
						"tags" : "",
						"style" : "",
						"subpatcher_template" : "",
						"assistshowspatchername" : 0,
						"boxes" : [ 							{
								"box" : 								{
									"id" : "obj-73",
									"linecount" : 9,
									"maxclass" : "comment",
									"numinlets" : 1,
									"numoutlets" : 0,
									"patching_rect" : [ 326.0, 89.5, 73.0, 131.0 ],
									"presentation_linecount" : 9,
									"text" : "launchpad\n81-88\n71-78\n61-68\n51-58\n41-48\n31-38\n21-28\n11-18"
								}

							}
, 							{
								"box" : 								{
									"id" : "obj-2",
									"maxclass" : "comment",
									"numinlets" : 1,
									"numoutlets" : 0,
									"patching_rect" : [ 50.0, 343.0, 108.0, 20.0 ],
									"text" : "set as launchpad"
								}

							}
, 							{
								"box" : 								{
									"id" : "obj-329",
									"maxclass" : "newobj",
									"numinlets" : 1,
									"numoutlets" : 2,
									"outlettype" : [ "", "" ],
									"patcher" : 									{
										"fileversion" : 1,
										"appversion" : 										{
											"major" : 8,
											"minor" : 5,
											"revision" : 3,
											"architecture" : "x64",
											"modernui" : 1
										}
,
										"classnamespace" : "box",
										"rect" : [ 0.0, 0.0, 640.0, 480.0 ],
										"bglocked" : 0,
										"openinpresentation" : 0,
										"default_fontsize" : 12.0,
										"default_fontface" : 0,
										"default_fontname" : "Arial",
										"gridonopen" : 1,
										"gridsize" : [ 15.0, 15.0 ],
										"gridsnaponopen" : 1,
										"objectsnaponopen" : 1,
										"statusbarvisible" : 2,
										"toolbarvisible" : 1,
										"lefttoolbarpinned" : 0,
										"toptoolbarpinned" : 0,
										"righttoolbarpinned" : 0,
										"bottomtoolbarpinned" : 0,
										"toolbars_unpinned_last_save" : 0,
										"tallnewobj" : 0,
										"boxanimatetime" : 200,
										"enablehscroll" : 1,
										"enablevscroll" : 1,
										"devicewidth" : 0.0,
										"description" : "",
										"digest" : "",
										"tags" : "",
										"style" : "",
										"subpatcher_template" : "",
										"assistshowspatchername" : 0,
										"boxes" : [ 											{
												"box" : 												{
													"id" : "obj-325",
													"maxclass" : "message",
													"numinlets" : 2,
													"numoutlets" : 1,
													"outlettype" : [ "" ],
													"patching_rect" : [ 98.8125, 857.0, 29.5, 22.0 ],
													"text" : "0"
												}

											}
, 											{
												"box" : 												{
													"id" : "obj-323",
													"maxclass" : "message",
													"numinlets" : 2,
													"numoutlets" : 1,
													"outlettype" : [ "" ],
													"patching_rect" : [ 50.8125, 857.0, 29.5, 22.0 ],
													"text" : "81"
												}

											}
, 											{
												"box" : 												{
													"id" : "obj-321",
													"maxclass" : "newobj",
													"numinlets" : 2,
													"numoutlets" : 1,
													"outlettype" : [ "bang" ],
													"patching_rect" : [ 50.0, 803.0, 48.0, 22.0 ],
													"text" : "del 200"
												}

											}
, 											{
												"box" : 												{
													"id" : "obj-320",
													"maxclass" : "newobj",
													"numinlets" : 2,
													"numoutlets" : 1,
													"outlettype" : [ "bang" ],
													"patching_rect" : [ 50.0, 696.0, 48.0, 22.0 ],
													"text" : "del 200"
												}

											}
, 											{
												"box" : 												{
													"id" : "obj-319",
													"maxclass" : "newobj",
													"numinlets" : 2,
													"numoutlets" : 1,
													"outlettype" : [ "bang" ],
													"patching_rect" : [ 50.0, 502.0, 48.0, 22.0 ],
													"text" : "del 200"
												}

											}
, 											{
												"box" : 												{
													"id" : "obj-318",
													"maxclass" : "newobj",
													"numinlets" : 2,
													"numoutlets" : 1,
													"outlettype" : [ "bang" ],
													"patching_rect" : [ 50.0, 590.0, 48.0, 22.0 ],
													"text" : "del 200"
												}

											}
, 											{
												"box" : 												{
													"id" : "obj-316",
													"maxclass" : "newobj",
													"numinlets" : 2,
													"numoutlets" : 1,
													"outlettype" : [ "bang" ],
													"patching_rect" : [ 50.0, 414.0, 48.0, 22.0 ],
													"text" : "del 200"
												}

											}
, 											{
												"box" : 												{
													"id" : "obj-315",
													"maxclass" : "newobj",
													"numinlets" : 2,
													"numoutlets" : 1,
													"outlettype" : [ "bang" ],
													"patching_rect" : [ 50.0, 327.0, 48.0, 22.0 ],
													"text" : "del 200"
												}

											}
, 											{
												"box" : 												{
													"id" : "obj-314",
													"maxclass" : "newobj",
													"numinlets" : 2,
													"numoutlets" : 1,
													"outlettype" : [ "bang" ],
													"patching_rect" : [ 50.0, 227.0, 48.0, 22.0 ],
													"text" : "del 200"
												}

											}
, 											{
												"box" : 												{
													"id" : "obj-313",
													"maxclass" : "newobj",
													"numinlets" : 2,
													"numoutlets" : 1,
													"outlettype" : [ "bang" ],
													"patching_rect" : [ 50.0, 139.0, 48.0, 22.0 ],
													"text" : "del 200"
												}

											}
, 											{
												"box" : 												{
													"id" : "obj-309",
													"maxclass" : "message",
													"numinlets" : 2,
													"numoutlets" : 1,
													"outlettype" : [ "" ],
													"patching_rect" : [ 206.8125, 752.0, 29.5, 22.0 ],
													"text" : "0"
												}

											}
, 											{
												"box" : 												{
													"id" : "obj-310",
													"maxclass" : "message",
													"numinlets" : 2,
													"numoutlets" : 1,
													"outlettype" : [ "" ],
													"patching_rect" : [ 159.8125, 752.0, 29.5, 22.0 ],
													"text" : "71"
												}

											}
, 											{
												"box" : 												{
													"id" : "obj-311",
													"maxclass" : "message",
													"numinlets" : 2,
													"numoutlets" : 1,
													"outlettype" : [ "" ],
													"patching_rect" : [ 102.8125, 752.0, 29.5, 22.0 ],
													"text" : "1"
												}

											}
, 											{
												"box" : 												{
													"id" : "obj-312",
													"maxclass" : "message",
													"numinlets" : 2,
													"numoutlets" : 1,
													"outlettype" : [ "" ],
													"patching_rect" : [ 50.0, 752.0, 29.5, 22.0 ],
													"text" : "81"
												}

											}
, 											{
												"box" : 												{
													"id" : "obj-305",
													"maxclass" : "message",
													"numinlets" : 2,
													"numoutlets" : 1,
													"outlettype" : [ "" ],
													"patching_rect" : [ 206.8125, 640.0, 29.5, 22.0 ],
													"text" : "0"
												}

											}
, 											{
												"box" : 												{
													"id" : "obj-306",
													"maxclass" : "message",
													"numinlets" : 2,
													"numoutlets" : 1,
													"outlettype" : [ "" ],
													"patching_rect" : [ 159.8125, 640.0, 29.5, 22.0 ],
													"text" : "61"
												}

											}
, 											{
												"box" : 												{
													"id" : "obj-307",
													"maxclass" : "message",
													"numinlets" : 2,
													"numoutlets" : 1,
													"outlettype" : [ "" ],
													"patching_rect" : [ 102.8125, 640.0, 29.5, 22.0 ],
													"text" : "1"
												}

											}
, 											{
												"box" : 												{
													"id" : "obj-308",
													"maxclass" : "message",
													"numinlets" : 2,
													"numoutlets" : 1,
													"outlettype" : [ "" ],
													"patching_rect" : [ 50.0, 640.0, 29.5, 22.0 ],
													"text" : "71"
												}

											}
, 											{
												"box" : 												{
													"id" : "obj-301",
													"maxclass" : "message",
													"numinlets" : 2,
													"numoutlets" : 1,
													"outlettype" : [ "" ],
													"patching_rect" : [ 206.8125, 542.0, 29.5, 22.0 ],
													"text" : "0"
												}

											}
, 											{
												"box" : 												{
													"id" : "obj-302",
													"maxclass" : "message",
													"numinlets" : 2,
													"numoutlets" : 1,
													"outlettype" : [ "" ],
													"patching_rect" : [ 159.8125, 542.0, 29.5, 22.0 ],
													"text" : "51"
												}

											}
, 											{
												"box" : 												{
													"id" : "obj-303",
													"maxclass" : "message",
													"numinlets" : 2,
													"numoutlets" : 1,
													"outlettype" : [ "" ],
													"patching_rect" : [ 102.8125, 542.0, 29.5, 22.0 ],
													"text" : "1"
												}

											}
, 											{
												"box" : 												{
													"id" : "obj-304",
													"maxclass" : "message",
													"numinlets" : 2,
													"numoutlets" : 1,
													"outlettype" : [ "" ],
													"patching_rect" : [ 50.0, 542.0, 29.5, 22.0 ],
													"text" : "61"
												}

											}
, 											{
												"box" : 												{
													"id" : "obj-297",
													"maxclass" : "message",
													"numinlets" : 2,
													"numoutlets" : 1,
													"outlettype" : [ "" ],
													"patching_rect" : [ 206.8125, 465.0, 29.5, 22.0 ],
													"text" : "0"
												}

											}
, 											{
												"box" : 												{
													"id" : "obj-298",
													"maxclass" : "message",
													"numinlets" : 2,
													"numoutlets" : 1,
													"outlettype" : [ "" ],
													"patching_rect" : [ 159.8125, 465.0, 29.5, 22.0 ],
													"text" : "41"
												}

											}
, 											{
												"box" : 												{
													"id" : "obj-299",
													"maxclass" : "message",
													"numinlets" : 2,
													"numoutlets" : 1,
													"outlettype" : [ "" ],
													"patching_rect" : [ 102.8125, 465.0, 29.5, 22.0 ],
													"text" : "1"
												}

											}
, 											{
												"box" : 												{
													"id" : "obj-300",
													"maxclass" : "message",
													"numinlets" : 2,
													"numoutlets" : 1,
													"outlettype" : [ "" ],
													"patching_rect" : [ 50.0, 465.0, 29.5, 22.0 ],
													"text" : "51"
												}

											}
, 											{
												"box" : 												{
													"id" : "obj-293",
													"maxclass" : "message",
													"numinlets" : 2,
													"numoutlets" : 1,
													"outlettype" : [ "" ],
													"patching_rect" : [ 206.8125, 376.0, 29.5, 22.0 ],
													"text" : "0"
												}

											}
, 											{
												"box" : 												{
													"id" : "obj-294",
													"maxclass" : "message",
													"numinlets" : 2,
													"numoutlets" : 1,
													"outlettype" : [ "" ],
													"patching_rect" : [ 159.8125, 376.0, 29.5, 22.0 ],
													"text" : "31"
												}

											}
, 											{
												"box" : 												{
													"id" : "obj-295",
													"maxclass" : "message",
													"numinlets" : 2,
													"numoutlets" : 1,
													"outlettype" : [ "" ],
													"patching_rect" : [ 102.8125, 376.0, 29.5, 22.0 ],
													"text" : "1"
												}

											}
, 											{
												"box" : 												{
													"id" : "obj-296",
													"maxclass" : "message",
													"numinlets" : 2,
													"numoutlets" : 1,
													"outlettype" : [ "" ],
													"patching_rect" : [ 50.0, 376.0, 29.5, 22.0 ],
													"text" : "41"
												}

											}
, 											{
												"box" : 												{
													"id" : "obj-289",
													"maxclass" : "message",
													"numinlets" : 2,
													"numoutlets" : 1,
													"outlettype" : [ "" ],
													"patching_rect" : [ 206.8125, 279.0, 29.5, 22.0 ],
													"text" : "0"
												}

											}
, 											{
												"box" : 												{
													"id" : "obj-290",
													"maxclass" : "message",
													"numinlets" : 2,
													"numoutlets" : 1,
													"outlettype" : [ "" ],
													"patching_rect" : [ 159.8125, 279.0, 29.5, 22.0 ],
													"text" : "21"
												}

											}
, 											{
												"box" : 												{
													"id" : "obj-291",
													"maxclass" : "message",
													"numinlets" : 2,
													"numoutlets" : 1,
													"outlettype" : [ "" ],
													"patching_rect" : [ 102.8125, 279.0, 29.5, 22.0 ],
													"text" : "1"
												}

											}
, 											{
												"box" : 												{
													"id" : "obj-292",
													"maxclass" : "message",
													"numinlets" : 2,
													"numoutlets" : 1,
													"outlettype" : [ "" ],
													"patching_rect" : [ 50.0, 279.0, 29.5, 22.0 ],
													"text" : "31"
												}

											}
, 											{
												"box" : 												{
													"id" : "obj-288",
													"maxclass" : "message",
													"numinlets" : 2,
													"numoutlets" : 1,
													"outlettype" : [ "" ],
													"patching_rect" : [ 206.8125, 173.0, 29.5, 22.0 ],
													"text" : "0"
												}

											}
, 											{
												"box" : 												{
													"id" : "obj-286",
													"maxclass" : "message",
													"numinlets" : 2,
													"numoutlets" : 1,
													"outlettype" : [ "" ],
													"patching_rect" : [ 159.8125, 173.0, 29.5, 22.0 ],
													"text" : "11"
												}

											}
, 											{
												"box" : 												{
													"id" : "obj-284",
													"maxclass" : "message",
													"numinlets" : 2,
													"numoutlets" : 1,
													"outlettype" : [ "" ],
													"patching_rect" : [ 102.8125, 173.0, 29.5, 22.0 ],
													"text" : "1"
												}

											}
, 											{
												"box" : 												{
													"id" : "obj-282",
													"maxclass" : "message",
													"numinlets" : 2,
													"numoutlets" : 1,
													"outlettype" : [ "" ],
													"patching_rect" : [ 50.0, 173.0, 29.5, 22.0 ],
													"text" : "21"
												}

											}
, 											{
												"box" : 												{
													"id" : "obj-280",
													"maxclass" : "message",
													"numinlets" : 2,
													"numoutlets" : 1,
													"outlettype" : [ "" ],
													"patching_rect" : [ 102.8125, 100.0, 29.5, 22.0 ],
													"text" : "1"
												}

											}
, 											{
												"box" : 												{
													"id" : "obj-278",
													"maxclass" : "message",
													"numinlets" : 2,
													"numoutlets" : 1,
													"outlettype" : [ "" ],
													"patching_rect" : [ 50.0, 100.0, 29.5, 22.0 ],
													"text" : "11"
												}

											}
, 											{
												"box" : 												{
													"comment" : "",
													"id" : "obj-326",
													"index" : 1,
													"maxclass" : "inlet",
													"numinlets" : 0,
													"numoutlets" : 1,
													"outlettype" : [ "bang" ],
													"patching_rect" : [ 70.40625, 40.0, 30.0, 30.0 ]
												}

											}
, 											{
												"box" : 												{
													"comment" : "",
													"id" : "obj-327",
													"index" : 1,
													"maxclass" : "outlet",
													"numinlets" : 1,
													"numoutlets" : 0,
													"patching_rect" : [ 92.09375, 939.0, 30.0, 30.0 ]
												}

											}
, 											{
												"box" : 												{
													"comment" : "",
													"id" : "obj-328",
													"index" : 2,
													"maxclass" : "outlet",
													"numinlets" : 1,
													"numoutlets" : 0,
													"patching_rect" : [ 142.0625, 939.0, 30.0, 30.0 ]
												}

											}
 ],
										"lines" : [ 											{
												"patchline" : 												{
													"destination" : [ "obj-313", 0 ],
													"order" : 1,
													"source" : [ "obj-278", 0 ]
												}

											}
, 											{
												"patchline" : 												{
													"destination" : [ "obj-327", 0 ],
													"order" : 0,
													"source" : [ "obj-278", 0 ]
												}

											}
, 											{
												"patchline" : 												{
													"destination" : [ "obj-328", 0 ],
													"source" : [ "obj-280", 0 ]
												}

											}
, 											{
												"patchline" : 												{
													"destination" : [ "obj-314", 0 ],
													"order" : 1,
													"source" : [ "obj-282", 0 ]
												}

											}
, 											{
												"patchline" : 												{
													"destination" : [ "obj-327", 0 ],
													"order" : 0,
													"source" : [ "obj-282", 0 ]
												}

											}
, 											{
												"patchline" : 												{
													"destination" : [ "obj-328", 0 ],
													"source" : [ "obj-284", 0 ]
												}

											}
, 											{
												"patchline" : 												{
													"destination" : [ "obj-327", 0 ],
													"source" : [ "obj-286", 0 ]
												}

											}
, 											{
												"patchline" : 												{
													"destination" : [ "obj-328", 0 ],
													"source" : [ "obj-288", 0 ]
												}

											}
, 											{
												"patchline" : 												{
													"destination" : [ "obj-328", 0 ],
													"source" : [ "obj-289", 0 ]
												}

											}
, 											{
												"patchline" : 												{
													"destination" : [ "obj-327", 0 ],
													"source" : [ "obj-290", 0 ]
												}

											}
, 											{
												"patchline" : 												{
													"destination" : [ "obj-328", 0 ],
													"source" : [ "obj-291", 0 ]
												}

											}
, 											{
												"patchline" : 												{
													"destination" : [ "obj-315", 0 ],
													"order" : 1,
													"source" : [ "obj-292", 0 ]
												}

											}
, 											{
												"patchline" : 												{
													"destination" : [ "obj-327", 0 ],
													"order" : 0,
													"source" : [ "obj-292", 0 ]
												}

											}
, 											{
												"patchline" : 												{
													"destination" : [ "obj-328", 0 ],
													"source" : [ "obj-293", 0 ]
												}

											}
, 											{
												"patchline" : 												{
													"destination" : [ "obj-327", 0 ],
													"source" : [ "obj-294", 0 ]
												}

											}
, 											{
												"patchline" : 												{
													"destination" : [ "obj-328", 0 ],
													"source" : [ "obj-295", 0 ]
												}

											}
, 											{
												"patchline" : 												{
													"destination" : [ "obj-316", 0 ],
													"order" : 1,
													"source" : [ "obj-296", 0 ]
												}

											}
, 											{
												"patchline" : 												{
													"destination" : [ "obj-327", 0 ],
													"order" : 0,
													"source" : [ "obj-296", 0 ]
												}

											}
, 											{
												"patchline" : 												{
													"destination" : [ "obj-328", 0 ],
													"source" : [ "obj-297", 0 ]
												}

											}
, 											{
												"patchline" : 												{
													"destination" : [ "obj-327", 0 ],
													"source" : [ "obj-298", 0 ]
												}

											}
, 											{
												"patchline" : 												{
													"destination" : [ "obj-328", 0 ],
													"source" : [ "obj-299", 0 ]
												}

											}
, 											{
												"patchline" : 												{
													"destination" : [ "obj-319", 0 ],
													"order" : 1,
													"source" : [ "obj-300", 0 ]
												}

											}
, 											{
												"patchline" : 												{
													"destination" : [ "obj-327", 0 ],
													"order" : 0,
													"source" : [ "obj-300", 0 ]
												}

											}
, 											{
												"patchline" : 												{
													"destination" : [ "obj-328", 0 ],
													"source" : [ "obj-301", 0 ]
												}

											}
, 											{
												"patchline" : 												{
													"destination" : [ "obj-327", 0 ],
													"source" : [ "obj-302", 0 ]
												}

											}
, 											{
												"patchline" : 												{
													"destination" : [ "obj-328", 0 ],
													"source" : [ "obj-303", 0 ]
												}

											}
, 											{
												"patchline" : 												{
													"destination" : [ "obj-318", 0 ],
													"order" : 1,
													"source" : [ "obj-304", 0 ]
												}

											}
, 											{
												"patchline" : 												{
													"destination" : [ "obj-327", 0 ],
													"order" : 0,
													"source" : [ "obj-304", 0 ]
												}

											}
, 											{
												"patchline" : 												{
													"destination" : [ "obj-328", 0 ],
													"source" : [ "obj-305", 0 ]
												}

											}
, 											{
												"patchline" : 												{
													"destination" : [ "obj-327", 0 ],
													"source" : [ "obj-306", 0 ]
												}

											}
, 											{
												"patchline" : 												{
													"destination" : [ "obj-328", 0 ],
													"source" : [ "obj-307", 0 ]
												}

											}
, 											{
												"patchline" : 												{
													"destination" : [ "obj-320", 0 ],
													"order" : 1,
													"source" : [ "obj-308", 0 ]
												}

											}
, 											{
												"patchline" : 												{
													"destination" : [ "obj-327", 0 ],
													"order" : 0,
													"source" : [ "obj-308", 0 ]
												}

											}
, 											{
												"patchline" : 												{
													"destination" : [ "obj-328", 0 ],
													"source" : [ "obj-309", 0 ]
												}

											}
, 											{
												"patchline" : 												{
													"destination" : [ "obj-327", 0 ],
													"source" : [ "obj-310", 0 ]
												}

											}
, 											{
												"patchline" : 												{
													"destination" : [ "obj-328", 0 ],
													"source" : [ "obj-311", 0 ]
												}

											}
, 											{
												"patchline" : 												{
													"destination" : [ "obj-321", 0 ],
													"order" : 1,
													"source" : [ "obj-312", 0 ]
												}

											}
, 											{
												"patchline" : 												{
													"destination" : [ "obj-327", 0 ],
													"order" : 0,
													"source" : [ "obj-312", 0 ]
												}

											}
, 											{
												"patchline" : 												{
													"destination" : [ "obj-282", 0 ],
													"order" : 3,
													"source" : [ "obj-313", 0 ]
												}

											}
, 											{
												"patchline" : 												{
													"destination" : [ "obj-284", 0 ],
													"order" : 2,
													"source" : [ "obj-313", 0 ]
												}

											}
, 											{
												"patchline" : 												{
													"destination" : [ "obj-286", 0 ],
													"order" : 1,
													"source" : [ "obj-313", 0 ]
												}

											}
, 											{
												"patchline" : 												{
													"destination" : [ "obj-288", 0 ],
													"order" : 0,
													"source" : [ "obj-313", 0 ]
												}

											}
, 											{
												"patchline" : 												{
													"destination" : [ "obj-289", 0 ],
													"order" : 0,
													"source" : [ "obj-314", 0 ]
												}

											}
, 											{
												"patchline" : 												{
													"destination" : [ "obj-290", 0 ],
													"order" : 1,
													"source" : [ "obj-314", 0 ]
												}

											}
, 											{
												"patchline" : 												{
													"destination" : [ "obj-291", 0 ],
													"order" : 2,
													"source" : [ "obj-314", 0 ]
												}

											}
, 											{
												"patchline" : 												{
													"destination" : [ "obj-292", 0 ],
													"order" : 3,
													"source" : [ "obj-314", 0 ]
												}

											}
, 											{
												"patchline" : 												{
													"destination" : [ "obj-293", 0 ],
													"order" : 0,
													"source" : [ "obj-315", 0 ]
												}

											}
, 											{
												"patchline" : 												{
													"destination" : [ "obj-294", 0 ],
													"order" : 1,
													"source" : [ "obj-315", 0 ]
												}

											}
, 											{
												"patchline" : 												{
													"destination" : [ "obj-295", 0 ],
													"order" : 2,
													"source" : [ "obj-315", 0 ]
												}

											}
, 											{
												"patchline" : 												{
													"destination" : [ "obj-296", 0 ],
													"order" : 3,
													"source" : [ "obj-315", 0 ]
												}

											}
, 											{
												"patchline" : 												{
													"destination" : [ "obj-297", 0 ],
													"order" : 0,
													"source" : [ "obj-316", 0 ]
												}

											}
, 											{
												"patchline" : 												{
													"destination" : [ "obj-298", 0 ],
													"order" : 1,
													"source" : [ "obj-316", 0 ]
												}

											}
, 											{
												"patchline" : 												{
													"destination" : [ "obj-299", 0 ],
													"order" : 2,
													"source" : [ "obj-316", 0 ]
												}

											}
, 											{
												"patchline" : 												{
													"destination" : [ "obj-300", 0 ],
													"order" : 3,
													"source" : [ "obj-316", 0 ]
												}

											}
, 											{
												"patchline" : 												{
													"destination" : [ "obj-305", 0 ],
													"order" : 0,
													"source" : [ "obj-318", 0 ]
												}

											}
, 											{
												"patchline" : 												{
													"destination" : [ "obj-306", 0 ],
													"order" : 1,
													"source" : [ "obj-318", 0 ]
												}

											}
, 											{
												"patchline" : 												{
													"destination" : [ "obj-307", 0 ],
													"order" : 2,
													"source" : [ "obj-318", 0 ]
												}

											}
, 											{
												"patchline" : 												{
													"destination" : [ "obj-308", 0 ],
													"order" : 3,
													"source" : [ "obj-318", 0 ]
												}

											}
, 											{
												"patchline" : 												{
													"destination" : [ "obj-301", 0 ],
													"order" : 0,
													"source" : [ "obj-319", 0 ]
												}

											}
, 											{
												"patchline" : 												{
													"destination" : [ "obj-302", 0 ],
													"order" : 1,
													"source" : [ "obj-319", 0 ]
												}

											}
, 											{
												"patchline" : 												{
													"destination" : [ "obj-303", 0 ],
													"order" : 2,
													"source" : [ "obj-319", 0 ]
												}

											}
, 											{
												"patchline" : 												{
													"destination" : [ "obj-304", 0 ],
													"order" : 3,
													"source" : [ "obj-319", 0 ]
												}

											}
, 											{
												"patchline" : 												{
													"destination" : [ "obj-309", 0 ],
													"order" : 0,
													"source" : [ "obj-320", 0 ]
												}

											}
, 											{
												"patchline" : 												{
													"destination" : [ "obj-310", 0 ],
													"order" : 1,
													"source" : [ "obj-320", 0 ]
												}

											}
, 											{
												"patchline" : 												{
													"destination" : [ "obj-311", 0 ],
													"order" : 2,
													"source" : [ "obj-320", 0 ]
												}

											}
, 											{
												"patchline" : 												{
													"destination" : [ "obj-312", 0 ],
													"order" : 3,
													"source" : [ "obj-320", 0 ]
												}

											}
, 											{
												"patchline" : 												{
													"destination" : [ "obj-323", 0 ],
													"order" : 1,
													"source" : [ "obj-321", 0 ]
												}

											}
, 											{
												"patchline" : 												{
													"destination" : [ "obj-325", 0 ],
													"order" : 0,
													"source" : [ "obj-321", 0 ]
												}

											}
, 											{
												"patchline" : 												{
													"destination" : [ "obj-327", 0 ],
													"source" : [ "obj-323", 0 ]
												}

											}
, 											{
												"patchline" : 												{
													"destination" : [ "obj-328", 0 ],
													"source" : [ "obj-325", 0 ]
												}

											}
, 											{
												"patchline" : 												{
													"destination" : [ "obj-278", 0 ],
													"order" : 1,
													"source" : [ "obj-326", 0 ]
												}

											}
, 											{
												"patchline" : 												{
													"destination" : [ "obj-280", 0 ],
													"order" : 0,
													"source" : [ "obj-326", 0 ]
												}

											}
 ]
									}
,
									"patching_rect" : [ 244.1875, 306.5, 106.0, 22.0 ],
									"saved_object_attributes" : 									{
										"description" : "",
										"digest" : "",
										"globalpatchername" : "",
										"tags" : ""
									}
,
									"text" : "p hardcodedEffect"
								}

							}
, 							{
								"box" : 								{
									"id" : "obj-273",
									"maxclass" : "button",
									"numinlets" : 1,
									"numoutlets" : 1,
									"outlettype" : [ "bang" ],
									"parameter_enable" : 0,
									"patching_rect" : [ 279.875, 239.5, 24.0, 24.0 ]
								}

							}
, 							{
								"box" : 								{
									"id" : "obj-269",
									"maxclass" : "newobj",
									"numinlets" : 8,
									"numoutlets" : 2,
									"outlettype" : [ "", "" ],
									"patcher" : 									{
										"fileversion" : 1,
										"appversion" : 										{
											"major" : 8,
											"minor" : 5,
											"revision" : 3,
											"architecture" : "x64",
											"modernui" : 1
										}
,
										"classnamespace" : "box",
										"rect" : [ 0.0, 0.0, 640.0, 480.0 ],
										"bglocked" : 0,
										"openinpresentation" : 0,
										"default_fontsize" : 12.0,
										"default_fontface" : 0,
										"default_fontname" : "Arial",
										"gridonopen" : 1,
										"gridsize" : [ 15.0, 15.0 ],
										"gridsnaponopen" : 1,
										"objectsnaponopen" : 1,
										"statusbarvisible" : 2,
										"toolbarvisible" : 1,
										"lefttoolbarpinned" : 0,
										"toptoolbarpinned" : 0,
										"righttoolbarpinned" : 0,
										"bottomtoolbarpinned" : 0,
										"toolbars_unpinned_last_save" : 0,
										"tallnewobj" : 0,
										"boxanimatetime" : 200,
										"enablehscroll" : 1,
										"enablevscroll" : 1,
										"devicewidth" : 0.0,
										"description" : "",
										"digest" : "",
										"tags" : "",
										"style" : "",
										"subpatcher_template" : "",
										"assistshowspatchername" : 0,
										"boxes" : [ 											{
												"box" : 												{
													"id" : "obj-258",
													"maxclass" : "newobj",
													"numinlets" : 1,
													"numoutlets" : 1,
													"outlettype" : [ "" ],
													"patching_rect" : [ 297.0, 250.0, 136.0, 22.0 ],
													"text" : "if $i1 > 1 then 1 else $i1"
												}

											}
, 											{
												"box" : 												{
													"id" : "obj-257",
													"maxclass" : "newobj",
													"numinlets" : 1,
													"numoutlets" : 1,
													"outlettype" : [ "" ],
													"patching_rect" : [ 160.0, 250.0, 136.0, 22.0 ],
													"text" : "if $i1 > 1 then 1 else $i1"
												}

											}
, 											{
												"box" : 												{
													"id" : "obj-256",
													"maxclass" : "newobj",
													"numinlets" : 1,
													"numoutlets" : 1,
													"outlettype" : [ "" ],
													"patching_rect" : [ 371.0, 190.0, 136.0, 22.0 ],
													"text" : "if $i1 > 1 then 1 else $i1"
												}

											}
, 											{
												"box" : 												{
													"id" : "obj-255",
													"maxclass" : "newobj",
													"numinlets" : 1,
													"numoutlets" : 1,
													"outlettype" : [ "" ],
													"patching_rect" : [ 233.0, 190.0, 136.0, 22.0 ],
													"text" : "if $i1 > 1 then 1 else $i1"
												}

											}
, 											{
												"box" : 												{
													"id" : "obj-254",
													"maxclass" : "newobj",
													"numinlets" : 1,
													"numoutlets" : 1,
													"outlettype" : [ "" ],
													"patching_rect" : [ 95.0, 190.0, 136.0, 22.0 ],
													"text" : "if $i1 > 1 then 1 else $i1"
												}

											}
, 											{
												"box" : 												{
													"id" : "obj-253",
													"maxclass" : "newobj",
													"numinlets" : 1,
													"numoutlets" : 1,
													"outlettype" : [ "" ],
													"patching_rect" : [ 371.0, 140.0, 136.0, 22.0 ],
													"text" : "if $i1 > 1 then 1 else $i1"
												}

											}
, 											{
												"box" : 												{
													"id" : "obj-252",
													"maxclass" : "newobj",
													"numinlets" : 1,
													"numoutlets" : 1,
													"outlettype" : [ "" ],
													"patching_rect" : [ 233.0, 140.0, 136.0, 22.0 ],
													"text" : "if $i1 > 1 then 1 else $i1"
												}

											}
, 											{
												"box" : 												{
													"id" : "obj-251",
													"maxclass" : "newobj",
													"numinlets" : 1,
													"numoutlets" : 1,
													"outlettype" : [ "" ],
													"patching_rect" : [ 95.0, 140.0, 136.0, 22.0 ],
													"text" : "if $i1 > 1 then 1 else $i1"
												}

											}
, 											{
												"box" : 												{
													"id" : "obj-196",
													"maxclass" : "newobj",
													"numinlets" : 1,
													"numoutlets" : 2,
													"outlettype" : [ "", "int" ],
													"patching_rect" : [ 512.0, 100.0, 64.0, 22.0 ],
													"text" : "launchpad"
												}

											}
, 											{
												"box" : 												{
													"id" : "obj-197",
													"maxclass" : "newobj",
													"numinlets" : 1,
													"numoutlets" : 2,
													"outlettype" : [ "", "int" ],
													"patching_rect" : [ 446.0, 100.0, 64.0, 22.0 ],
													"text" : "launchpad"
												}

											}
, 											{
												"box" : 												{
													"id" : "obj-194",
													"maxclass" : "newobj",
													"numinlets" : 1,
													"numoutlets" : 2,
													"outlettype" : [ "", "int" ],
													"patching_rect" : [ 380.0, 100.0, 64.0, 22.0 ],
													"text" : "launchpad"
												}

											}
, 											{
												"box" : 												{
													"id" : "obj-195",
													"maxclass" : "newobj",
													"numinlets" : 1,
													"numoutlets" : 2,
													"outlettype" : [ "", "int" ],
													"patching_rect" : [ 314.0, 100.0, 64.0, 22.0 ],
													"text" : "launchpad"
												}

											}
, 											{
												"box" : 												{
													"id" : "obj-192",
													"maxclass" : "newobj",
													"numinlets" : 1,
													"numoutlets" : 2,
													"outlettype" : [ "", "int" ],
													"patching_rect" : [ 248.0, 100.0, 64.0, 22.0 ],
													"text" : "launchpad"
												}

											}
, 											{
												"box" : 												{
													"id" : "obj-193",
													"maxclass" : "newobj",
													"numinlets" : 1,
													"numoutlets" : 2,
													"outlettype" : [ "", "int" ],
													"patching_rect" : [ 182.0, 100.0, 64.0, 22.0 ],
													"text" : "launchpad"
												}

											}
, 											{
												"box" : 												{
													"id" : "obj-191",
													"maxclass" : "newobj",
													"numinlets" : 1,
													"numoutlets" : 2,
													"outlettype" : [ "", "int" ],
													"patching_rect" : [ 116.0, 100.0, 64.0, 22.0 ],
													"text" : "launchpad"
												}

											}
, 											{
												"box" : 												{
													"id" : "obj-174",
													"maxclass" : "newobj",
													"numinlets" : 1,
													"numoutlets" : 2,
													"outlettype" : [ "", "int" ],
													"patching_rect" : [ 50.0, 100.0, 64.0, 22.0 ],
													"text" : "launchpad"
												}

											}
, 											{
												"box" : 												{
													"comment" : "",
													"id" : "obj-259",
													"index" : 1,
													"maxclass" : "inlet",
													"numinlets" : 0,
													"numoutlets" : 1,
													"outlettype" : [ "" ],
													"patching_rect" : [ 50.0, 40.0, 30.0, 30.0 ]
												}

											}
, 											{
												"box" : 												{
													"comment" : "",
													"id" : "obj-260",
													"index" : 2,
													"maxclass" : "inlet",
													"numinlets" : 0,
													"numoutlets" : 1,
													"outlettype" : [ "" ],
													"patching_rect" : [ 116.0, 40.0, 30.0, 30.0 ]
												}

											}
, 											{
												"box" : 												{
													"comment" : "",
													"id" : "obj-261",
													"index" : 3,
													"maxclass" : "inlet",
													"numinlets" : 0,
													"numoutlets" : 1,
													"outlettype" : [ "" ],
													"patching_rect" : [ 182.0, 40.0, 30.0, 30.0 ]
												}

											}
, 											{
												"box" : 												{
													"comment" : "",
													"id" : "obj-262",
													"index" : 4,
													"maxclass" : "inlet",
													"numinlets" : 0,
													"numoutlets" : 1,
													"outlettype" : [ "" ],
													"patching_rect" : [ 248.0, 40.0, 30.0, 30.0 ]
												}

											}
, 											{
												"box" : 												{
													"comment" : "",
													"id" : "obj-263",
													"index" : 5,
													"maxclass" : "inlet",
													"numinlets" : 0,
													"numoutlets" : 1,
													"outlettype" : [ "" ],
													"patching_rect" : [ 314.0, 40.0, 30.0, 30.0 ]
												}

											}
, 											{
												"box" : 												{
													"comment" : "",
													"id" : "obj-264",
													"index" : 6,
													"maxclass" : "inlet",
													"numinlets" : 0,
													"numoutlets" : 1,
													"outlettype" : [ "" ],
													"patching_rect" : [ 380.0, 40.0, 30.0, 30.0 ]
												}

											}
, 											{
												"box" : 												{
													"comment" : "",
													"id" : "obj-265",
													"index" : 7,
													"maxclass" : "inlet",
													"numinlets" : 0,
													"numoutlets" : 1,
													"outlettype" : [ "" ],
													"patching_rect" : [ 446.0, 40.0, 30.0, 30.0 ]
												}

											}
, 											{
												"box" : 												{
													"comment" : "",
													"id" : "obj-266",
													"index" : 8,
													"maxclass" : "inlet",
													"numinlets" : 0,
													"numoutlets" : 1,
													"outlettype" : [ "" ],
													"patching_rect" : [ 512.0, 40.0, 30.0, 30.0 ]
												}

											}
, 											{
												"box" : 												{
													"comment" : "",
													"id" : "obj-267",
													"index" : 2,
													"maxclass" : "outlet",
													"numinlets" : 1,
													"numoutlets" : 0,
													"patching_rect" : [ 275.0, 332.0, 30.0, 30.0 ]
												}

											}
, 											{
												"box" : 												{
													"comment" : "",
													"id" : "obj-268",
													"index" : 1,
													"maxclass" : "outlet",
													"numinlets" : 1,
													"numoutlets" : 0,
													"patching_rect" : [ 225.875, 332.0, 30.0, 30.0 ]
												}

											}
 ],
										"lines" : [ 											{
												"patchline" : 												{
													"destination" : [ "obj-251", 0 ],
													"source" : [ "obj-174", 1 ]
												}

											}
, 											{
												"patchline" : 												{
													"destination" : [ "obj-267", 0 ],
													"source" : [ "obj-174", 0 ]
												}

											}
, 											{
												"patchline" : 												{
													"destination" : [ "obj-252", 0 ],
													"source" : [ "obj-191", 1 ]
												}

											}
, 											{
												"patchline" : 												{
													"destination" : [ "obj-267", 0 ],
													"source" : [ "obj-191", 0 ]
												}

											}
, 											{
												"patchline" : 												{
													"destination" : [ "obj-253", 0 ],
													"source" : [ "obj-192", 1 ]
												}

											}
, 											{
												"patchline" : 												{
													"destination" : [ "obj-267", 0 ],
													"source" : [ "obj-192", 0 ]
												}

											}
, 											{
												"patchline" : 												{
													"destination" : [ "obj-257", 0 ],
													"source" : [ "obj-193", 1 ]
												}

											}
, 											{
												"patchline" : 												{
													"destination" : [ "obj-267", 0 ],
													"source" : [ "obj-193", 0 ]
												}

											}
, 											{
												"patchline" : 												{
													"destination" : [ "obj-255", 0 ],
													"source" : [ "obj-194", 1 ]
												}

											}
, 											{
												"patchline" : 												{
													"destination" : [ "obj-267", 0 ],
													"source" : [ "obj-194", 0 ]
												}

											}
, 											{
												"patchline" : 												{
													"destination" : [ "obj-254", 0 ],
													"source" : [ "obj-195", 1 ]
												}

											}
, 											{
												"patchline" : 												{
													"destination" : [ "obj-267", 0 ],
													"source" : [ "obj-195", 0 ]
												}

											}
, 											{
												"patchline" : 												{
													"destination" : [ "obj-258", 0 ],
													"source" : [ "obj-196", 1 ]
												}

											}
, 											{
												"patchline" : 												{
													"destination" : [ "obj-267", 0 ],
													"source" : [ "obj-196", 0 ]
												}

											}
, 											{
												"patchline" : 												{
													"destination" : [ "obj-256", 0 ],
													"source" : [ "obj-197", 1 ]
												}

											}
, 											{
												"patchline" : 												{
													"destination" : [ "obj-267", 0 ],
													"source" : [ "obj-197", 0 ]
												}

											}
, 											{
												"patchline" : 												{
													"destination" : [ "obj-268", 0 ],
													"source" : [ "obj-251", 0 ]
												}

											}
, 											{
												"patchline" : 												{
													"destination" : [ "obj-268", 0 ],
													"source" : [ "obj-252", 0 ]
												}

											}
, 											{
												"patchline" : 												{
													"destination" : [ "obj-268", 0 ],
													"source" : [ "obj-253", 0 ]
												}

											}
, 											{
												"patchline" : 												{
													"destination" : [ "obj-268", 0 ],
													"source" : [ "obj-254", 0 ]
												}

											}
, 											{
												"patchline" : 												{
													"destination" : [ "obj-268", 0 ],
													"source" : [ "obj-255", 0 ]
												}

											}
, 											{
												"patchline" : 												{
													"destination" : [ "obj-268", 0 ],
													"source" : [ "obj-256", 0 ]
												}

											}
, 											{
												"patchline" : 												{
													"destination" : [ "obj-268", 0 ],
													"source" : [ "obj-257", 0 ]
												}

											}
, 											{
												"patchline" : 												{
													"destination" : [ "obj-268", 0 ],
													"source" : [ "obj-258", 0 ]
												}

											}
, 											{
												"patchline" : 												{
													"destination" : [ "obj-174", 0 ],
													"source" : [ "obj-259", 0 ]
												}

											}
, 											{
												"patchline" : 												{
													"destination" : [ "obj-191", 0 ],
													"source" : [ "obj-260", 0 ]
												}

											}
, 											{
												"patchline" : 												{
													"destination" : [ "obj-193", 0 ],
													"source" : [ "obj-261", 0 ]
												}

											}
, 											{
												"patchline" : 												{
													"destination" : [ "obj-192", 0 ],
													"source" : [ "obj-262", 0 ]
												}

											}
, 											{
												"patchline" : 												{
													"destination" : [ "obj-195", 0 ],
													"source" : [ "obj-263", 0 ]
												}

											}
, 											{
												"patchline" : 												{
													"destination" : [ "obj-194", 0 ],
													"source" : [ "obj-264", 0 ]
												}

											}
, 											{
												"patchline" : 												{
													"destination" : [ "obj-197", 0 ],
													"source" : [ "obj-265", 0 ]
												}

											}
, 											{
												"patchline" : 												{
													"destination" : [ "obj-196", 0 ],
													"source" : [ "obj-266", 0 ]
												}

											}
 ]
									}
,
									"patching_rect" : [ 149.625, 144.0, 92.5, 22.0 ],
									"saved_object_attributes" : 									{
										"description" : "",
										"digest" : "",
										"globalpatchername" : "",
										"tags" : ""
									}
,
									"text" : "p launchpad"
								}

							}
, 							{
								"box" : 								{
									"id" : "obj-221",
									"maxclass" : "newobj",
									"numinlets" : 3,
									"numoutlets" : 0,
									"patching_rect" : [ 161.0, 343.0, 49.0, 22.0 ],
									"text" : "noteout"
								}

							}
, 							{
								"box" : 								{
									"id" : "obj-139",
									"maxclass" : "newobj",
									"numinlets" : 9,
									"numoutlets" : 9,
									"outlettype" : [ "", "", "", "", "", "", "", "", "" ],
									"patching_rect" : [ 148.0, 100.0, 116.0, 22.0 ],
									"text" : "route 1 2 3 4 5 6 7 8"
								}

							}
, 							{
								"box" : 								{
									"comment" : "",
									"id" : "obj-7",
									"index" : 1,
									"maxclass" : "inlet",
									"numinlets" : 0,
									"numoutlets" : 1,
									"outlettype" : [ "" ],
									"patching_rect" : [ 148.0, 40.0, 30.0, 30.0 ]
								}

							}
 ],
						"lines" : [ 							{
								"patchline" : 								{
									"destination" : [ "obj-269", 7 ],
									"source" : [ "obj-139", 7 ]
								}

							}
, 							{
								"patchline" : 								{
									"destination" : [ "obj-269", 6 ],
									"source" : [ "obj-139", 6 ]
								}

							}
, 							{
								"patchline" : 								{
									"destination" : [ "obj-269", 5 ],
									"source" : [ "obj-139", 5 ]
								}

							}
, 							{
								"patchline" : 								{
									"destination" : [ "obj-269", 4 ],
									"source" : [ "obj-139", 4 ]
								}

							}
, 							{
								"patchline" : 								{
									"destination" : [ "obj-269", 3 ],
									"source" : [ "obj-139", 3 ]
								}

							}
, 							{
								"patchline" : 								{
									"destination" : [ "obj-269", 2 ],
									"source" : [ "obj-139", 2 ]
								}

							}
, 							{
								"patchline" : 								{
									"destination" : [ "obj-269", 1 ],
									"source" : [ "obj-139", 1 ]
								}

							}
, 							{
								"patchline" : 								{
									"destination" : [ "obj-269", 0 ],
									"source" : [ "obj-139", 0 ]
								}

							}
, 							{
								"patchline" : 								{
									"destination" : [ "obj-221", 0 ],
									"source" : [ "obj-269", 1 ]
								}

							}
, 							{
								"patchline" : 								{
									"destination" : [ "obj-221", 1 ],
									"source" : [ "obj-269", 0 ]
								}

							}
, 							{
								"patchline" : 								{
									"destination" : [ "obj-329", 0 ],
									"source" : [ "obj-273", 0 ]
								}

							}
, 							{
								"patchline" : 								{
									"destination" : [ "obj-221", 1 ],
									"source" : [ "obj-329", 1 ]
								}

							}
, 							{
								"patchline" : 								{
									"destination" : [ "obj-221", 0 ],
									"source" : [ "obj-329", 0 ]
								}

							}
, 							{
								"patchline" : 								{
									"destination" : [ "obj-139", 0 ],
									"source" : [ "obj-7", 0 ]
								}

							}
 ]
					}
,
					"patching_rect" : [ 2263.0, 123.0, 100.0, 22.0 ],
					"saved_object_attributes" : 					{
						"description" : "",
						"digest" : "",
						"globalpatchername" : "",
						"tags" : ""
					}
,
					"text" : "p launchpad stuff"
				}

			}
, 			{
				"box" : 				{
					"id" : "obj-336",
					"maxclass" : "comment",
					"numinlets" : 1,
					"numoutlets" : 0,
					"patching_rect" : [ 459.0, 16.0, 305.0, 20.0 ],
					"text" : "https://niu-electronic-music-f62f1.web.app/"
				}

			}
, 			{
				"box" : 				{
					"id" : "obj-334",
					"maxclass" : "comment",
					"numinlets" : 1,
					"numoutlets" : 0,
					"patching_rect" : [ 300.0, 16.0, 150.0, 20.0 ],
					"text" : "QR Code to go to page"
				}

			}
, 			{
				"box" : 				{
					"autofit" : 1,
					"forceaspect" : 1,
					"id" : "obj-331",
					"maxclass" : "fpic",
					"numinlets" : 1,
					"numoutlets" : 1,
					"outlettype" : [ "jit_matrix" ],
					"patching_rect" : [ 300.0, 45.0, 713.0, 713.0 ],
					"pic" : "C:/Users/Jordan/Documents/CSCI/Projects/niu_electronic_music/Max/LeadSynthQR.png"
				}

			}
, 			{
				"box" : 				{
					"id" : "obj-108",
					"maxclass" : "newobj",
					"numinlets" : 8,
					"numoutlets" : 0,
					"patcher" : 					{
						"fileversion" : 1,
						"appversion" : 						{
							"major" : 8,
							"minor" : 5,
							"revision" : 3,
							"architecture" : "x64",
							"modernui" : 1
						}
,
						"classnamespace" : "box",
						"rect" : [ 466.0, 133.0, 640.0, 480.0 ],
						"bglocked" : 0,
						"openinpresentation" : 0,
						"default_fontsize" : 12.0,
						"default_fontface" : 0,
						"default_fontname" : "Arial",
						"gridonopen" : 1,
						"gridsize" : [ 15.0, 15.0 ],
						"gridsnaponopen" : 1,
						"objectsnaponopen" : 1,
						"statusbarvisible" : 2,
						"toolbarvisible" : 1,
						"lefttoolbarpinned" : 0,
						"toptoolbarpinned" : 0,
						"righttoolbarpinned" : 0,
						"bottomtoolbarpinned" : 0,
						"toolbars_unpinned_last_save" : 0,
						"tallnewobj" : 0,
						"boxanimatetime" : 200,
						"enablehscroll" : 1,
						"enablevscroll" : 1,
						"devicewidth" : 0.0,
						"description" : "",
						"digest" : "",
						"tags" : "",
						"style" : "",
						"subpatcher_template" : "",
						"assistshowspatchername" : 0,
						"boxes" : [ 							{
								"box" : 								{
									"id" : "obj-57",
									"maxclass" : "newobj",
									"numinlets" : 1,
									"numoutlets" : 0,
									"patching_rect" : [ 242.0, 130.0, 62.0, 22.0 ],
									"text" : "leadSynth"
								}

							}
, 							{
								"box" : 								{
									"id" : "obj-58",
									"maxclass" : "newobj",
									"numinlets" : 1,
									"numoutlets" : 0,
									"patching_rect" : [ 178.0, 130.0, 62.0, 22.0 ],
									"text" : "leadSynth"
								}

							}
, 							{
								"box" : 								{
									"id" : "obj-59",
									"maxclass" : "newobj",
									"numinlets" : 1,
									"numoutlets" : 0,
									"patching_rect" : [ 114.0, 130.0, 62.0, 22.0 ],
									"text" : "leadSynth"
								}

							}
, 							{
								"box" : 								{
									"id" : "obj-60",
									"maxclass" : "newobj",
									"numinlets" : 1,
									"numoutlets" : 0,
									"patching_rect" : [ 50.0, 130.0, 62.0, 22.0 ],
									"text" : "leadSynth"
								}

							}
, 							{
								"box" : 								{
									"id" : "obj-55",
									"maxclass" : "newobj",
									"numinlets" : 1,
									"numoutlets" : 0,
									"patching_rect" : [ 242.0, 100.0, 62.0, 22.0 ],
									"text" : "leadSynth"
								}

							}
, 							{
								"box" : 								{
									"id" : "obj-56",
									"maxclass" : "newobj",
									"numinlets" : 1,
									"numoutlets" : 0,
									"patching_rect" : [ 178.0, 100.0, 62.0, 22.0 ],
									"text" : "leadSynth"
								}

							}
, 							{
								"box" : 								{
									"id" : "obj-54",
									"maxclass" : "newobj",
									"numinlets" : 1,
									"numoutlets" : 0,
									"patching_rect" : [ 114.0, 100.0, 62.0, 22.0 ],
									"text" : "leadSynth"
								}

							}
, 							{
								"box" : 								{
									"id" : "obj-53",
									"maxclass" : "newobj",
									"numinlets" : 1,
									"numoutlets" : 0,
									"patching_rect" : [ 50.0, 100.0, 62.0, 22.0 ],
									"text" : "leadSynth"
								}

							}
, 							{
								"box" : 								{
									"comment" : "",
									"id" : "obj-100",
									"index" : 1,
									"maxclass" : "inlet",
									"numinlets" : 0,
									"numoutlets" : 1,
									"outlettype" : [ "" ],
									"patching_rect" : [ 50.0, 40.0, 30.0, 30.0 ]
								}

							}
, 							{
								"box" : 								{
									"comment" : "",
									"id" : "obj-101",
									"index" : 2,
									"maxclass" : "inlet",
									"numinlets" : 0,
									"numoutlets" : 1,
									"outlettype" : [ "" ],
									"patching_rect" : [ 85.0, 40.0, 30.0, 30.0 ]
								}

							}
, 							{
								"box" : 								{
									"comment" : "",
									"id" : "obj-102",
									"index" : 3,
									"maxclass" : "inlet",
									"numinlets" : 0,
									"numoutlets" : 1,
									"outlettype" : [ "" ],
									"patching_rect" : [ 120.0, 40.0, 30.0, 30.0 ]
								}

							}
, 							{
								"box" : 								{
									"comment" : "",
									"id" : "obj-103",
									"index" : 4,
									"maxclass" : "inlet",
									"numinlets" : 0,
									"numoutlets" : 1,
									"outlettype" : [ "" ],
									"patching_rect" : [ 155.0, 40.0, 30.0, 30.0 ]
								}

							}
, 							{
								"box" : 								{
									"comment" : "",
									"id" : "obj-104",
									"index" : 5,
									"maxclass" : "inlet",
									"numinlets" : 0,
									"numoutlets" : 1,
									"outlettype" : [ "" ],
									"patching_rect" : [ 190.0, 40.0, 30.0, 30.0 ]
								}

							}
, 							{
								"box" : 								{
									"comment" : "",
									"id" : "obj-105",
									"index" : 6,
									"maxclass" : "inlet",
									"numinlets" : 0,
									"numoutlets" : 1,
									"outlettype" : [ "" ],
									"patching_rect" : [ 225.0, 40.0, 30.0, 30.0 ]
								}

							}
, 							{
								"box" : 								{
									"comment" : "",
									"id" : "obj-106",
									"index" : 7,
									"maxclass" : "inlet",
									"numinlets" : 0,
									"numoutlets" : 1,
									"outlettype" : [ "" ],
									"patching_rect" : [ 260.0, 40.0, 30.0, 30.0 ]
								}

							}
, 							{
								"box" : 								{
									"comment" : "",
									"id" : "obj-107",
									"index" : 8,
									"maxclass" : "inlet",
									"numinlets" : 0,
									"numoutlets" : 1,
									"outlettype" : [ "" ],
									"patching_rect" : [ 295.0, 40.0, 30.0, 30.0 ]
								}

							}
 ],
						"lines" : [ 							{
								"patchline" : 								{
									"destination" : [ "obj-53", 0 ],
									"source" : [ "obj-100", 0 ]
								}

							}
, 							{
								"patchline" : 								{
									"destination" : [ "obj-60", 0 ],
									"source" : [ "obj-101", 0 ]
								}

							}
, 							{
								"patchline" : 								{
									"destination" : [ "obj-54", 0 ],
									"source" : [ "obj-102", 0 ]
								}

							}
, 							{
								"patchline" : 								{
									"destination" : [ "obj-59", 0 ],
									"source" : [ "obj-103", 0 ]
								}

							}
, 							{
								"patchline" : 								{
									"destination" : [ "obj-56", 0 ],
									"source" : [ "obj-104", 0 ]
								}

							}
, 							{
								"patchline" : 								{
									"destination" : [ "obj-58", 0 ],
									"source" : [ "obj-105", 0 ]
								}

							}
, 							{
								"patchline" : 								{
									"destination" : [ "obj-55", 0 ],
									"source" : [ "obj-106", 0 ]
								}

							}
, 							{
								"patchline" : 								{
									"destination" : [ "obj-57", 0 ],
									"source" : [ "obj-107", 0 ]
								}

							}
 ]
					}
,
					"patching_rect" : [ 24.0, 1035.0, 103.875, 22.0 ],
					"saved_object_attributes" : 					{
						"description" : "",
						"digest" : "",
						"globalpatchername" : "",
						"tags" : ""
					}
,
					"text" : "p leadSynth8"
				}

			}
, 			{
				"box" : 				{
					"id" : "obj-99",
					"maxclass" : "newobj",
					"numinlets" : 1,
					"numoutlets" : 1,
					"outlettype" : [ "" ],
					"patching_rect" : [ 648.0, 817.5, 83.0, 22.0 ],
					"text" : "loadmess 300"
				}

			}
, 			{
				"box" : 				{
					"id" : "obj-98",
					"maxclass" : "newobj",
					"numinlets" : 1,
					"numoutlets" : 1,
					"outlettype" : [ "" ],
					"patching_rect" : [ 565.0, 817.5, 77.0, 22.0 ],
					"text" : "loadmess 10"
				}

			}
, 			{
				"box" : 				{
					"id" : "obj-67",
					"maxclass" : "number",
					"numinlets" : 1,
					"numoutlets" : 2,
					"outlettype" : [ "", "bang" ],
					"parameter_enable" : 0,
					"patching_rect" : [ 648.0, 846.5, 50.0, 22.0 ]
				}

			}
, 			{
				"box" : 				{
					"id" : "obj-65",
					"maxclass" : "number",
					"numinlets" : 1,
					"numoutlets" : 2,
					"outlettype" : [ "", "bang" ],
					"parameter_enable" : 0,
					"patching_rect" : [ 565.0, 846.5, 50.0, 22.0 ]
				}

			}
, 			{
				"box" : 				{
					"id" : "obj-62",
					"maxclass" : "newobj",
					"numinlets" : 1,
					"numoutlets" : 0,
					"patching_rect" : [ 648.0, 876.5, 57.0, 22.0 ],
					"text" : "s release"
				}

			}
, 			{
				"box" : 				{
					"id" : "obj-61",
					"maxclass" : "newobj",
					"numinlets" : 1,
					"numoutlets" : 0,
					"patching_rect" : [ 565.0, 876.5, 50.0, 22.0 ],
					"text" : "s attack"
				}

			}
, 			{
				"box" : 				{
					"id" : "obj-31",
					"maxclass" : "newobj",
					"numinlets" : 1,
					"numoutlets" : 1,
					"outlettype" : [ "signal" ],
					"patching_rect" : [ 400.5, 814.0, 110.0, 22.0 ],
					"text" : "receive~ audio_out"
				}

			}
, 			{
				"box" : 				{
					"id" : "obj-23",
					"maxclass" : "newobj",
					"numinlets" : 9,
					"numoutlets" : 9,
					"outlettype" : [ "", "", "", "", "", "", "", "", "" ],
					"patching_rect" : [ 24.0, 991.0, 116.0, 22.0 ],
					"text" : "route 1 2 3 4 5 6 7 8"
				}

			}
, 			{
				"box" : 				{
					"id" : "obj-22",
					"maxclass" : "newobj",
					"numinlets" : 3,
					"numoutlets" : 1,
					"outlettype" : [ "" ],
					"patching_rect" : [ 24.0, 957.0, 64.0, 22.0 ],
					"text" : "pack 0 0 0"
				}

			}
, 			{
				"box" : 				{
					"id" : "obj-21",
					"maxclass" : "newobj",
					"numinlets" : 2,
					"numoutlets" : 3,
					"outlettype" : [ "int", "int", "int" ],
					"patching_rect" : [ 24.0, 917.0, 51.0, 22.0 ],
					"text" : "poly 8 1"
				}

			}
, 			{
				"box" : 				{
					"id" : "obj-20",
					"maxclass" : "kslider",
					"mode" : 1,
					"numinlets" : 2,
					"numoutlets" : 2,
					"outlettype" : [ "int", "int" ],
					"parameter_enable" : 0,
					"patching_rect" : [ 20.0, 840.5, 336.0, 53.0 ]
				}

			}
, 			{
				"box" : 				{
					"id" : "obj-64",
					"maxclass" : "newobj",
					"numinlets" : 1,
					"numoutlets" : 3,
					"outlettype" : [ "int", "int", "int" ],
					"patching_rect" : [ 35.5, 804.0, 41.0, 22.0 ],
					"text" : "notein"
				}

			}
, 			{
				"box" : 				{
					"id" : "obj-613",
					"maxclass" : "gain~",
					"multichannelvariant" : 0,
					"numinlets" : 1,
					"numoutlets" : 2,
					"outlettype" : [ "signal", "" ],
					"parameter_enable" : 0,
					"patching_rect" : [ 400.5, 846.0, 22.0, 140.0 ]
				}

			}
, 			{
				"box" : 				{
					"id" : "obj-595",
					"linecount" : 3,
					"maxclass" : "comment",
					"numinlets" : 1,
					"numoutlets" : 0,
					"patching_rect" : [ 132.0, 137.0, 150.0, 48.0 ],
					"text" : "loads data from firebase and parses the data into parsedDict"
				}

			}
, 			{
				"box" : 				{
					"id" : "obj-122",
					"maxclass" : "newobj",
					"numinlets" : 0,
					"numoutlets" : 0,
					"patcher" : 					{
						"fileversion" : 1,
						"appversion" : 						{
							"major" : 8,
							"minor" : 5,
							"revision" : 3,
							"architecture" : "x64",
							"modernui" : 1
						}
,
						"classnamespace" : "box",
						"rect" : [ 59.0, 107.0, 640.0, 480.0 ],
						"bglocked" : 0,
						"openinpresentation" : 0,
						"default_fontsize" : 12.0,
						"default_fontface" : 0,
						"default_fontname" : "Arial",
						"gridonopen" : 1,
						"gridsize" : [ 15.0, 15.0 ],
						"gridsnaponopen" : 1,
						"objectsnaponopen" : 1,
						"statusbarvisible" : 2,
						"toolbarvisible" : 1,
						"lefttoolbarpinned" : 0,
						"toptoolbarpinned" : 0,
						"righttoolbarpinned" : 0,
						"bottomtoolbarpinned" : 0,
						"toolbars_unpinned_last_save" : 0,
						"tallnewobj" : 0,
						"boxanimatetime" : 200,
						"enablehscroll" : 1,
						"enablevscroll" : 1,
						"devicewidth" : 0.0,
						"description" : "",
						"digest" : "",
						"tags" : "",
						"style" : "",
						"subpatcher_template" : "",
						"assistshowspatchername" : 0,
						"boxes" : [ 							{
								"box" : 								{
									"id" : "obj-116",
									"maxclass" : "newobj",
									"numinlets" : 1,
									"numoutlets" : 1,
									"outlettype" : [ "" ],
									"patching_rect" : [ 50.0, 313.0, 76.0, 22.0 ],
									"saved_object_attributes" : 									{
										"filename" : "midterm.js",
										"parameter_enable" : 0
									}
,
									"text" : "js midterm.js"
								}

							}
, 							{
								"box" : 								{
									"id" : "obj-115",
									"maxclass" : "message",
									"numinlets" : 2,
									"numoutlets" : 1,
									"outlettype" : [ "" ],
									"patching_rect" : [ 50.0, 279.0, 59.0, 22.0 ],
									"text" : "parseDict"
								}

							}
, 							{
								"box" : 								{
									"id" : "obj-112",
									"maxclass" : "newobj",
									"numinlets" : 2,
									"numoutlets" : 4,
									"outlettype" : [ "dictionary", "", "", "" ],
									"patching_rect" : [ 50.0, 242.0, 80.0, 22.0 ],
									"saved_object_attributes" : 									{
										"embed" : 0,
										"parameter_enable" : 0,
										"parameter_mappable" : 0
									}
,
									"text" : "dict synthDict"
								}

							}
, 							{
								"box" : 								{
									"id" : "obj-111",
									"maxclass" : "newobj",
									"numinlets" : 0,
									"numoutlets" : 1,
									"outlettype" : [ "" ],
									"patching_rect" : [ 50.0, 100.0, 77.0, 22.0 ],
									"text" : "r metronome"
								}

							}
, 							{
								"box" : 								{
									"id" : "obj-110",
									"maxclass" : "message",
									"numinlets" : 2,
									"numoutlets" : 1,
									"outlettype" : [ "" ],
									"patching_rect" : [ 50.0, 155.0, 411.0, 22.0 ],
									"text" : "get https://niu-electronic-music-f62f1-default-rtdb.firebaseio.com/synths.json"
								}

							}
, 							{
								"box" : 								{
									"id" : "obj-108",
									"maxclass" : "newobj",
									"numinlets" : 1,
									"numoutlets" : 2,
									"outlettype" : [ "dictionary", "" ],
									"patching_rect" : [ 50.0, 198.0, 45.0, 22.0 ],
									"text" : "maxurl"
								}

							}
 ],
						"lines" : [ 							{
								"patchline" : 								{
									"destination" : [ "obj-112", 0 ],
									"source" : [ "obj-108", 0 ]
								}

							}
, 							{
								"patchline" : 								{
									"destination" : [ "obj-108", 0 ],
									"source" : [ "obj-110", 0 ]
								}

							}
, 							{
								"patchline" : 								{
									"destination" : [ "obj-110", 0 ],
									"source" : [ "obj-111", 0 ]
								}

							}
, 							{
								"patchline" : 								{
									"destination" : [ "obj-115", 0 ],
									"source" : [ "obj-112", 0 ]
								}

							}
, 							{
								"patchline" : 								{
									"destination" : [ "obj-116", 0 ],
									"source" : [ "obj-115", 0 ]
								}

							}
 ]
					}
,
					"patching_rect" : [ 132.0, 189.0, 93.0, 22.0 ],
					"saved_object_attributes" : 					{
						"description" : "",
						"digest" : "",
						"globalpatchername" : "",
						"tags" : ""
					}
,
					"text" : "p loadSynthDict"
				}

			}
, 			{
				"box" : 				{
					"id" : "obj-119",
					"maxclass" : "dict.view",
					"numinlets" : 1,
					"numoutlets" : 0,
					"patching_rect" : [ 28.0, 306.0, 202.0, 457.0 ]
				}

			}
, 			{
				"box" : 				{
					"id" : "obj-118",
					"maxclass" : "newobj",
					"numinlets" : 2,
					"numoutlets" : 4,
					"outlettype" : [ "dictionary", "", "", "" ],
					"patching_rect" : [ 28.0, 264.0, 88.0, 22.0 ],
					"saved_object_attributes" : 					{
						"embed" : 0,
						"parameter_enable" : 0,
						"parameter_mappable" : 0
					}
,
					"text" : "dict parsedDict"
				}

			}
, 			{
				"box" : 				{
					"id" : "obj-117",
					"maxclass" : "newobj",
					"numinlets" : 1,
					"numoutlets" : 1,
					"outlettype" : [ "bang" ],
					"patching_rect" : [ 28.0, 233.0, 58.0, 22.0 ],
					"text" : "loadbang"
				}

			}
, 			{
				"box" : 				{
					"id" : "obj-16",
					"maxclass" : "ezdac~",
					"numinlets" : 2,
					"numoutlets" : 0,
					"patching_rect" : [ 400.5, 1002.0, 40.0, 40.0 ]
				}

			}
, 			{
				"box" : 				{
					"id" : "obj-13",
					"linecount" : 2,
					"maxclass" : "comment",
					"numinlets" : 1,
					"numoutlets" : 0,
					"patching_rect" : [ 28.0, 50.0, 73.0, 34.0 ],
					"text" : "metronome for firebase"
				}

			}
, 			{
				"box" : 				{
					"id" : "obj-11",
					"maxclass" : "newobj",
					"numinlets" : 1,
					"numoutlets" : 0,
					"patching_rect" : [ 28.0, 172.0, 79.0, 22.0 ],
					"text" : "s metronome"
				}

			}
, 			{
				"box" : 				{
					"id" : "obj-10",
					"maxclass" : "newobj",
					"numinlets" : 2,
					"numoutlets" : 1,
					"outlettype" : [ "bang" ],
					"patching_rect" : [ 28.0, 143.0, 63.0, 22.0 ],
					"text" : "metro 500"
				}

			}
, 			{
				"box" : 				{
					"id" : "obj-9",
					"maxclass" : "toggle",
					"numinlets" : 1,
					"numoutlets" : 1,
					"outlettype" : [ "int" ],
					"parameter_enable" : 0,
					"patching_rect" : [ 28.0, 113.0, 24.0, 24.0 ]
				}

			}
, 			{
				"box" : 				{
					"id" : "obj-6",
					"maxclass" : "newobj",
					"numinlets" : 1,
					"numoutlets" : 1,
					"outlettype" : [ "bang" ],
					"patching_rect" : [ 28.0, 86.0, 58.0, 22.0 ],
					"text" : "loadbang"
				}

			}
 ],
		"lines" : [ 			{
				"patchline" : 				{
					"destination" : [ "obj-11", 0 ],
					"source" : [ "obj-10", 0 ]
				}

			}
, 			{
				"patchline" : 				{
					"destination" : [ "obj-118", 0 ],
					"source" : [ "obj-117", 0 ]
				}

			}
, 			{
				"patchline" : 				{
					"destination" : [ "obj-119", 0 ],
					"source" : [ "obj-118", 0 ]
				}

			}
, 			{
				"patchline" : 				{
					"destination" : [ "obj-21", 1 ],
					"source" : [ "obj-20", 1 ]
				}

			}
, 			{
				"patchline" : 				{
					"destination" : [ "obj-21", 0 ],
					"source" : [ "obj-20", 0 ]
				}

			}
, 			{
				"patchline" : 				{
					"destination" : [ "obj-22", 2 ],
					"source" : [ "obj-21", 2 ]
				}

			}
, 			{
				"patchline" : 				{
					"destination" : [ "obj-22", 1 ],
					"source" : [ "obj-21", 1 ]
				}

			}
, 			{
				"patchline" : 				{
					"destination" : [ "obj-22", 0 ],
					"source" : [ "obj-21", 0 ]
				}

			}
, 			{
				"patchline" : 				{
					"destination" : [ "obj-23", 0 ],
					"source" : [ "obj-22", 0 ]
				}

			}
, 			{
				"patchline" : 				{
					"destination" : [ "obj-108", 7 ],
					"source" : [ "obj-23", 7 ]
				}

			}
, 			{
				"patchline" : 				{
					"destination" : [ "obj-108", 6 ],
					"source" : [ "obj-23", 6 ]
				}

			}
, 			{
				"patchline" : 				{
					"destination" : [ "obj-108", 5 ],
					"source" : [ "obj-23", 5 ]
				}

			}
, 			{
				"patchline" : 				{
					"destination" : [ "obj-108", 4 ],
					"source" : [ "obj-23", 4 ]
				}

			}
, 			{
				"patchline" : 				{
					"destination" : [ "obj-108", 3 ],
					"source" : [ "obj-23", 3 ]
				}

			}
, 			{
				"patchline" : 				{
					"destination" : [ "obj-108", 2 ],
					"source" : [ "obj-23", 2 ]
				}

			}
, 			{
				"patchline" : 				{
					"destination" : [ "obj-108", 1 ],
					"source" : [ "obj-23", 1 ]
				}

			}
, 			{
				"patchline" : 				{
					"destination" : [ "obj-108", 0 ],
					"source" : [ "obj-23", 0 ]
				}

			}
, 			{
				"patchline" : 				{
					"destination" : [ "obj-613", 0 ],
					"source" : [ "obj-31", 0 ]
				}

			}
, 			{
				"patchline" : 				{
					"destination" : [ "obj-9", 0 ],
					"source" : [ "obj-6", 0 ]
				}

			}
, 			{
				"patchline" : 				{
					"destination" : [ "obj-16", 1 ],
					"order" : 0,
					"source" : [ "obj-613", 0 ]
				}

			}
, 			{
				"patchline" : 				{
					"destination" : [ "obj-16", 0 ],
					"order" : 1,
					"source" : [ "obj-613", 0 ]
				}

			}
, 			{
				"patchline" : 				{
					"destination" : [ "obj-20", 1 ],
					"source" : [ "obj-64", 1 ]
				}

			}
, 			{
				"patchline" : 				{
					"destination" : [ "obj-20", 0 ],
					"source" : [ "obj-64", 0 ]
				}

			}
, 			{
				"patchline" : 				{
					"destination" : [ "obj-61", 0 ],
					"source" : [ "obj-65", 0 ]
				}

			}
, 			{
				"patchline" : 				{
					"destination" : [ "obj-62", 0 ],
					"source" : [ "obj-67", 0 ]
				}

			}
, 			{
				"patchline" : 				{
					"destination" : [ "obj-10", 0 ],
					"source" : [ "obj-9", 0 ]
				}

			}
, 			{
				"patchline" : 				{
					"destination" : [ "obj-65", 0 ],
					"source" : [ "obj-98", 0 ]
				}

			}
, 			{
				"patchline" : 				{
					"destination" : [ "obj-67", 0 ],
					"source" : [ "obj-99", 0 ]
				}

			}
 ],
		"dependency_cache" : [ 			{
				"name" : "LeadSynthQR.png",
				"bootpath" : "~/Documents/CSCI/Projects/niu_electronic_music/Max",
				"patcherrelativepath" : ".",
				"type" : "PNG",
				"implicit" : 1
			}
, 			{
				"name" : "launchpad.maxpat",
				"bootpath" : "~/Documents/CSCI/Projects/niu_electronic_music/Max",
				"patcherrelativepath" : ".",
				"type" : "JSON",
				"implicit" : 1
			}
, 			{
				"name" : "leadSynth.maxpat",
				"bootpath" : "~/Documents/CSCI/Projects/niu_electronic_music/Max",
				"patcherrelativepath" : ".",
				"type" : "JSON",
				"implicit" : 1
			}
, 			{
				"name" : "midterm.js",
				"bootpath" : "~/Documents/CSCI/Projects/niu_electronic_music/Max",
				"patcherrelativepath" : ".",
				"type" : "TEXT",
				"implicit" : 1
			}
 ],
		"autosave" : 0
	}

}
